<?xml version="1.0" standalone="no"?>
<!DOCTYPE svg PUBLIC "-//W3C//DTD SVG 20010904//EN"
 "http://www.w3.org/TR/2001/REC-SVG-20010904/DTD/svg10.dtd">
<svg version="1.0" xmlns="http://www.w3.org/2000/svg"
 width="168.000000pt" height="168.000000pt" viewBox="0 0 168.000000 168.000000"
 preserveAspectRatio="xMidYMid meet">
<metadata>
Created by potrace 1.11, written by Peter Selinger 2001-2013
</metadata>
<g transform="translate(0.000000,168.000000) scale(0.100000,-0.100000)"
fill="#000000" stroke="none">
<path d="M747 1670 c-342 -42 -630 -296 -721 -635 -23 -84 -31 -245 -17 -335
45 -289 222 -521 498 -653 l88 -42 241 -3 c238 -3 241 -3 310 23 201 76 372
229 467 420 66 135 69 150 65 397 l-3 223 -34 78 c-64 149 -177 291 -302 380
-158 112 -396 171 -592 147z m115 -293 c7 -7 126 -107 263 -221 261 -218 285
-240 285 -261 0 -22 -50 -75 -71 -75 -16 0 -387 298 -480 387 l-35 34 -252
-211 c-139 -115 -261 -210 -271 -210 -24 0 -74 58 -67 77 4 8 6 18 6 22 0 4
36 36 80 72 l79 64 1 118 c0 103 2 119 20 137 24 24 57 26 88 4 19 -13 22 -24
22 -80 l0 -66 24 19 c13 10 72 60 132 110 111 94 145 110 176 80z m-342 -646
c5 -11 10 -69 10 -130 l0 -111 290 0 290 0 0 118 c0 78 4 122 12 130 19 19 89
15 104 -5 10 -13 13 -61 14 -177 0 -135 -3 -162 -17 -178 -15 -17 -41 -18
-404 -18 -339 0 -390 2 -403 16 -24 23 -24 335 0 358 23 23 91 21 104 -3z"/>
</g>
</svg>
